<svg width="18" height="17" viewBox="0 0 18 17" fill="none" xmlns="http://www.w3.org/2000/svg">
<path d="M7.8103 0.623992C8.17711 -0.119253 9.23695 -0.119253 9.60377 0.623992L11.4133 4.29048C11.5589 4.58562 11.8405 4.79019 12.1662 4.83752L16.2124 5.42547C17.0327 5.54465 17.3602 6.55263 16.7666 7.13116L13.8388 9.98513C13.6031 10.2149 13.4955 10.5459 13.5512 10.8703L14.2424 14.9001C14.3825 15.717 13.525 16.34 12.7914 15.9543L9.17237 14.0517C8.88105 13.8985 8.53301 13.8985 8.24169 14.0517L4.62265 15.9543C3.88902 16.34 3.03159 15.717 3.1717 14.9001L3.86288 10.8703C3.91851 10.5459 3.81097 10.2149 3.57528 9.98513L0.647416 7.13116C0.0538987 6.55263 0.381409 5.54465 1.20163 5.42547L5.24784 4.83752C5.57355 4.79019 5.85511 4.58562 6.00078 4.29048L7.8103 0.623992Z" fill="#2D2D2D"/>
</svg>
