<svg width="39" height="47" viewBox="0 0 39 47" fill="none" xmlns="http://www.w3.org/2000/svg">
<path fill-rule="evenodd" clip-rule="evenodd" d="M28.447 0.0238611C26.4703 0.214361 24.1496 1.3593 22.5213 2.94736C20.7794 4.64628 19.6023 7.00795 19.396 9.21795C19.3643 9.55733 19.3788 10.3649 19.4207 10.5905L19.4491 10.743L19.6452 10.7708C19.9315 10.8115 20.6361 10.787 20.998 10.7239C22.3792 10.4831 23.8175 9.80336 25.103 8.78394C25.4917 8.47571 26.2104 7.74832 26.5643 7.30502C27.0793 6.65981 27.5166 5.97031 27.8696 5.2468C28.3837 4.19306 28.6884 3.19622 28.8549 2.02226C28.9031 1.68297 28.9253 0.625799 28.8899 0.35281C28.8412 -0.0241183 28.8505 -0.00209532 28.7424 0.00142652C28.6903 0.00311883 28.5574 0.013227 28.447 0.0238611ZM27.5615 11.3344C27.0292 11.3658 26.3073 11.4822 25.6748 11.6385C24.842 11.8443 24.2171 12.0567 22.7475 12.6334C21.5552 13.1013 21.1854 13.2316 20.7058 13.353C20.0973 13.5071 19.5635 13.5032 18.9055 13.3401C18.4396 13.2246 18.0992 13.1035 16.8746 12.618C15.6963 12.1508 15.2666 11.9952 14.709 11.8339C13.3512 11.4412 12.2677 11.3539 10.9013 11.5269C9.42801 11.7134 8.00251 12.2017 6.71626 12.9604C4.21559 14.4353 2.34739 16.8175 1.34149 19.8138C0.598546 22.0269 0.338433 24.5356 0.566072 27.2926C0.774524 29.817 1.39165 32.4966 2.34893 35.0338C2.9634 36.6624 3.79439 38.378 4.61971 39.722C5.37428 40.9507 6.89512 43.0136 7.83998 44.09C9.5975 46.0922 11.2275 46.945 13.0488 46.815C14.0078 46.7465 14.6158 46.5756 16.092 45.9597C17.0443 45.5623 17.442 45.4137 17.9346 45.2713C19.4238 44.8406 21.1066 44.8028 22.5646 45.1671C23.1747 45.3196 23.5259 45.4466 24.5656 45.8908C25.8552 46.4417 26.3492 46.5974 27.1613 46.7089C27.5218 46.7584 28.2949 46.7776 28.602 46.7447C30.0212 46.5927 31.3163 45.8881 32.6047 44.5669C33.3909 43.7607 34.1863 42.7472 35.33 41.0941C36.5908 39.2717 37.7136 37.0471 38.4117 34.9881C38.6238 34.3623 38.6252 34.3564 38.5572 34.3354C38.327 34.2642 37.4461 33.7807 36.9835 33.4717C34.3406 31.7062 32.7449 29.1609 32.4001 26.1606C32.1132 23.665 32.6637 21.2914 33.999 19.2656C34.7731 18.0912 35.8917 16.9715 37.0922 16.1691C37.2462 16.0662 37.3723 15.9708 37.3723 15.9573C37.3723 15.9185 37.0584 15.4984 36.7858 15.1723C34.8587 12.867 32.1349 11.5423 28.9107 11.3422C28.5636 11.3206 27.8635 11.3166 27.5615 11.3344Z" fill="#2D2D2D"/>
</svg>
