<svg width="240" height="38" viewBox="0 0 240 38" fill="none" xmlns="http://www.w3.org/2000/svg">
<path fill-rule="evenodd" clip-rule="evenodd" d="M194.915 13.1453V0.12866L194.918 0.125735C195.324 -0.0058941 200.686 -0.0468455 201.488 0.0643082C201.599 0.462122 201.619 36.9439 201.499 37.4909H194.938C194.928 37.0684 194.929 36.6489 194.93 36.2181V36.2157V36.2152V36.2147V36.2142V36.2137V36.2131V36.2126V36.2121C194.931 35.8098 194.932 35.3976 194.924 34.9636C194.872 35.0131 194.828 35.0539 194.79 35.0896L194.788 35.0911L194.787 35.0921L194.787 35.0922C194.719 35.1545 194.669 35.2015 194.622 35.2532C193.096 36.982 191.171 37.8858 188.872 37.9853C186.649 38.0818 184.513 37.7103 182.53 36.6631C180.155 35.4112 178.59 33.4514 177.604 30.9914C176.841 29.0871 176.519 27.0951 176.452 25.0593C176.373 22.6812 176.616 20.3382 177.402 18.0741C178.201 15.7867 179.473 13.8357 181.477 12.4141C182.878 11.4166 184.44 10.8082 186.137 10.5683C186.909 10.4601 187.693 10.3636 188.471 10.3753C190.858 10.4162 192.958 11.2031 194.666 12.9143C194.708 12.9578 194.752 12.9981 194.827 13.0653L194.83 13.0684C194.855 13.0907 194.883 13.116 194.915 13.1453ZM191.738 31.7724C193.213 31.1201 194.175 29.9617 194.804 28.5109L194.801 28.5138C195.406 27.1215 195.597 25.6501 195.626 23.7986C195.616 23.6936 195.606 23.5641 195.595 23.4169L195.595 23.416L195.595 23.4154C195.565 23.0051 195.524 22.4575 195.436 21.9177C195.178 20.3499 194.628 18.9049 193.517 17.7173C191.639 15.7136 188.568 15.4006 186.339 17.0065C185.186 17.8372 184.458 18.978 184.013 20.306C183.326 22.3565 183.273 24.4538 183.653 26.5657C183.873 27.7855 184.306 28.9233 185.046 29.9325C186.616 32.0707 189.34 32.8313 191.738 31.7724ZM52.4919 28.9116C54.051 22.9122 55.6101 16.9099 57.175 10.8842V10.8813L58.813 10.8354C60.3508 10.7922 61.8885 10.749 63.4757 10.7058L62.9942 12.2158C60.3163 20.6134 57.6533 28.9644 54.9929 37.3154H49.1953C47.6941 31.7018 46.1929 26.097 44.6916 20.4922L44.6912 20.4905L44.6848 20.4669C44.6497 20.4698 44.6117 20.4727 44.5737 20.4727L43.5017 24.5142C42.3554 28.8358 41.2087 33.1589 40.0603 37.4939H34.2686L33.5409 35.2112C30.9631 27.1249 28.3823 19.029 25.7916 10.8989H32.4287C33.98 16.8742 35.5313 22.8466 37.0826 28.819L37.1059 28.9087L37.124 28.9103L37.1439 28.9123C37.1693 28.9149 37.1946 28.9175 37.22 28.9175C37.9688 25.9251 38.7184 22.932 39.4687 19.9359L39.4772 19.9018L39.5136 19.7563L39.5165 19.7447L39.5245 19.7131C40.2591 16.7795 40.9944 13.8431 41.7305 10.9018H47.8674C48.5357 13.5724 49.204 16.2408 49.872 18.9081C50.7069 22.2414 51.5414 25.5731 52.3749 28.9058C52.413 28.9087 52.4539 28.9116 52.4919 28.9116ZM87.7656 13.8153L87.764 13.8217C87.5076 14.8162 87.2517 15.8093 86.9964 16.8017C86.8281 17.4576 86.6611 18.1136 86.4942 18.7694L86.4934 18.7723L86.4927 18.7753L86.4919 18.7783L86.4911 18.7812L86.4904 18.7842L86.489 18.7895L86.4887 18.791C86.1407 20.1577 85.7928 21.5239 85.4344 22.8889C85.3177 23.3323 85.2034 23.7765 85.0891 24.2209L85.089 24.2212L85.089 24.2215L85.0889 24.2218L85.0888 24.2221L85.0888 24.2224C84.6846 25.7938 84.28 27.3666 83.7671 28.9146C83.0152 25.8837 82.2633 22.852 81.5114 19.8204C80.7598 16.7898 80.0082 13.7591 79.2566 10.7292H73.1226C71.6659 16.8222 70.218 22.8859 68.7701 28.9526C68.7321 28.9555 68.697 28.9584 68.6589 28.9643C68.0549 27.2414 67.4516 25.5178 66.8483 23.7942C66.245 22.0706 65.6417 20.3469 65.0377 18.6241H64.9265C64.8716 18.7622 64.8136 18.8995 64.7555 19.0368L64.7554 19.037C64.6279 19.3387 64.5003 19.6405 64.4058 19.9521C64.0745 21.0591 63.7497 22.1686 63.425 23.278L63.4249 23.2784L63.4247 23.2789L63.4246 23.2794L63.4244 23.2798L63.4243 23.2803L63.4242 23.2808L63.424 23.2813L63.424 23.2814L63.4239 23.2816L63.4239 23.2817L63.4238 23.2819L63.4238 23.2821L63.4238 23.2822L63.4237 23.2824C63.1354 24.2674 62.8471 25.2522 62.5543 26.2352C62.4694 26.5218 62.4724 26.7763 62.563 27.063C63.334 29.5112 64.1003 31.9626 64.8664 34.4137C65.1438 35.3011 65.4212 36.1884 65.6987 37.0756C65.7332 37.1832 65.7787 37.2877 65.8214 37.3855L65.8214 37.3856L65.8214 37.3857L65.8214 37.3857C65.8367 37.4207 65.8516 37.4549 65.8655 37.488H71.625C72.7901 33.0978 73.9501 28.7215 75.1089 24.3497L75.112 24.338L76.1443 20.4435C76.1662 20.4435 76.1894 20.4462 76.2122 20.4488C76.2229 20.4501 76.2334 20.4513 76.2437 20.4522C77.0851 23.6281 77.9273 26.803 78.7694 29.9776L78.7695 29.978L78.7697 29.9784L78.7698 29.9788L78.7699 29.9792C79.4355 32.4882 80.101 34.9969 80.7659 37.5056H86.6717C87.0286 36.7363 95.1077 11.1007 95.1164 10.7146H88.573H88.5642C88.2989 11.7463 88.0336 12.7757 87.7686 13.8037L87.7656 13.8153ZM118.821 16.4269L118.823 16.419L118.825 16.4102C118.997 15.7347 119.169 15.0597 119.342 14.3855V14.3943C119.497 13.7953 119.653 13.197 119.809 12.5973L119.81 12.5935C119.972 11.9733 120.134 11.3517 120.296 10.7262H126.904C126.885 10.7971 126.868 10.8653 126.851 10.9313C126.82 11.0587 126.79 11.1781 126.751 11.2937C125.894 13.9456 125.037 16.5981 124.18 19.2507L124.17 19.2806C123.317 21.9227 122.463 24.5649 121.609 27.2062C121.081 28.8354 120.554 30.4653 120.027 32.0951C119.499 33.7253 118.972 35.3554 118.444 36.9848C118.425 37.0436 118.409 37.0961 118.394 37.1429C118.333 37.3379 118.303 37.436 118.236 37.485C118.169 37.5346 118.064 37.5339 117.854 37.5324L117.795 37.532L117.725 37.5318H112.919C112.84 37.5318 112.76 37.527 112.664 37.5213C112.61 37.518 112.552 37.5145 112.486 37.5114C110.979 31.825 109.473 26.1386 107.964 20.4522L107.867 20.4463C106.934 23.9606 106.002 27.4748 105.069 30.9953L105.066 31.007C104.493 33.1674 103.919 35.3302 103.345 37.4967H97.5531L97.4262 37.1161L97.4257 37.1148C97.1736 36.3587 96.9239 35.61 96.6785 34.8612C96.4351 34.121 96.1922 33.3805 95.9493 32.64L95.9443 32.6247L95.9377 32.6047C95.3379 30.7761 94.738 28.9473 94.1307 27.1214C94.0254 26.8026 94.0196 26.5188 94.1249 26.1971C94.4612 25.1587 94.7925 24.1181 95.1238 23.0775C95.455 22.0369 95.7863 20.9963 96.1227 19.9578C96.269 19.5045 96.4737 19.0715 96.7604 18.624L100.385 28.9701L100.393 28.9694C100.428 28.9667 100.46 28.9642 100.493 28.9642C101.336 25.4321 102.18 21.8999 103.024 18.3661L103.029 18.346L103.032 18.3349L103.035 18.3237L103.038 18.3078L103.049 18.2635L103.07 18.1765L103.108 18.018C103.689 15.5865 104.27 13.1541 104.851 10.7204H110.979L115.49 28.9028C115.854 27.9771 116.097 27.0219 116.339 26.068L116.339 26.0673C116.403 25.8188 116.466 25.5703 116.531 25.3225C116.741 24.5252 116.947 23.7266 117.152 22.9285C117.261 22.5055 117.369 22.0827 117.479 21.6602C117.789 20.458 118.099 19.2558 118.406 18.0507C118.545 17.5093 118.683 16.968 118.821 16.4269ZM22.4249 17.3662C21.5561 14.172 19.5787 12.0191 16.4021 11.0158C15.3315 10.6765 14.2287 10.5186 13.1084 10.425C11.2773 10.2699 9.48422 10.4045 7.74086 10.9954C4.81869 11.987 2.7565 13.8737 1.77659 16.8485C1.70853 17.0566 1.65986 17.2711 1.61167 17.4835L1.61166 17.4836C1.58737 17.5906 1.5632 17.6972 1.53673 17.8021C2.38501 18.0946 6.60593 18.978 6.99204 18.9458C7.01877 18.8881 7.04527 18.8298 7.07193 18.771C7.13863 18.6241 7.20639 18.4749 7.28162 18.3286C7.79937 17.3428 8.56282 16.6233 9.63633 16.2869C11.1837 15.8013 12.7282 15.8686 14.2317 16.4536C15.2584 16.8543 15.937 17.6266 16.133 18.7205C16.2219 19.2237 16.2508 19.738 16.2794 20.248L16.2794 20.2481L16.2794 20.2482L16.2794 20.2483L16.2794 20.2483L16.2794 20.2484C16.2923 20.4766 16.305 20.7039 16.3231 20.929C16.266 20.9558 16.227 20.9761 16.1987 20.9908L16.1987 20.9908C16.156 21.0131 16.1377 21.0226 16.1183 21.0226C15.9224 21.0314 15.7264 21.0343 15.5304 21.0372C14.94 21.0473 14.3494 21.0427 13.7589 21.0381H13.7587H13.7586H13.7585H13.7583H13.7582C12.2863 21.0267 10.815 21.0153 9.34967 21.2303C7.59168 21.4877 5.92145 21.9967 4.40333 22.9385C2.66289 24.0179 1.40803 25.4863 0.817158 27.4754C0.425195 28.7975 0.395944 30.1343 0.653352 31.4827C1.22375 34.4897 2.9203 36.5168 5.86588 37.4441C7.35183 37.9121 8.87288 37.9531 10.4027 37.7308C12.8861 37.371 14.922 36.2009 16.5337 34.2879C16.5788 34.2346 16.6067 34.1655 16.6344 34.0967C16.6462 34.0673 16.6581 34.038 16.6712 34.01C16.718 34.0393 16.7677 34.0685 16.8145 34.0949C17.0339 35.1654 17.2533 36.2331 17.4727 37.3008H22.8987C22.9018 37.2493 22.9052 37.2004 22.9084 37.1533L22.9084 37.1532C22.9172 37.0235 22.925 36.9077 22.925 36.7918C22.925 35.0961 22.9254 33.4007 22.9257 31.7055V31.7052V31.7048V31.7045V31.7042V31.7039C22.9263 28.3142 22.927 24.925 22.925 21.5345C22.925 20.1275 22.7963 18.7293 22.4249 17.3633V17.3662ZM15.0273 30.1665C14.062 31.2575 12.8218 31.8659 11.4002 32.1233C10.7332 32.2433 10.0634 32.3106 9.39647 32.1175C8.18548 31.7665 7.42788 30.6959 7.49223 29.4323C7.57121 27.8907 8.51309 26.7909 10.0692 26.4691C10.4992 26.3785 10.9468 26.3404 11.3885 26.3375C12.383 26.3278 13.3775 26.331 14.3721 26.3343C14.8693 26.3359 15.3666 26.3375 15.8639 26.3375C15.944 26.3375 16.0241 26.3453 16.113 26.354L16.1131 26.354C16.1572 26.3583 16.2034 26.3629 16.2529 26.3668C16.3641 27.8235 15.9809 29.09 15.0302 30.1694L15.0273 30.1665ZM144.946 11.2323C147.844 12.3409 149.585 14.4733 150.369 17.4335L150.372 17.4306C150.711 18.7089 150.845 20.0164 150.845 21.3356V36.8065C150.845 36.9205 150.838 37.0362 150.829 37.1651L150.829 37.1657L150.828 37.168C150.825 37.2134 150.822 37.2604 150.819 37.3096H145.405C145.182 36.2185 144.963 35.1479 144.729 34.0071C144.678 34.0616 144.636 34.1055 144.599 34.1435L144.599 34.1436L144.599 34.1441C144.541 34.2037 144.498 34.2486 144.457 34.2967C142.845 36.2156 140.804 37.3769 138.323 37.7308C136.387 38.0087 134.488 37.8683 132.692 37.02C130.396 35.9319 129.086 34.0803 128.615 31.6232C128.308 30.029 128.346 28.4348 128.939 26.8962C129.56 25.2816 130.648 24.0443 132.081 23.0965C133.447 22.1927 134.962 21.6515 136.565 21.3473C137.791 21.1162 139.031 21.0314 140.28 21.0373C141.13 21.0411 141.978 21.0399 142.842 21.0386H142.843H142.843H142.843H142.844C143.282 21.0379 143.725 21.0373 144.173 21.0373L144.179 20.9173C144.23 19.7983 144.28 18.7113 143.676 17.7143C143.261 17.024 142.641 16.5911 141.898 16.3425C140.622 15.9183 139.312 15.854 138.004 16.1494C136.673 16.4507 135.72 17.2551 135.132 18.4866C135.106 18.5362 135.084 18.587 135.061 18.6383L135.061 18.6387L135.061 18.6391L135.043 18.6799C135.036 18.6964 135.028 18.7129 135.021 18.7294C134.983 18.8083 134.945 18.8873 134.877 19.0277C133.894 18.8127 132.91 18.5985 131.921 18.3833C131.108 18.2062 130.291 18.0285 129.469 17.8489C129.606 16.9714 129.887 16.1933 130.276 15.4562C131.513 13.1073 133.476 11.6506 135.986 10.893C137.639 10.3928 139.326 10.2817 141.049 10.425C142.386 10.5391 143.694 10.7526 144.946 11.2323ZM138.063 32.2287C139.075 32.2521 140.037 32.0386 140.956 31.6232H140.959C143.167 30.6228 144.358 28.6893 144.173 26.399C144.149 26.3894 144.129 26.3802 144.112 26.3724C144.083 26.3587 144.062 26.3492 144.042 26.3492C143.542 26.3501 143.042 26.3482 142.543 26.3464H142.543C141.317 26.3418 140.091 26.3373 138.867 26.3726C138.051 26.396 137.253 26.6066 136.548 27.0688C135.574 27.7123 135.164 28.6601 135.275 29.7687C135.41 31.1464 136.67 32.1994 138.063 32.2287ZM224.339 23.778C223.201 22.8654 221.899 22.2628 220.542 21.7656C220.004 21.5695 219.463 21.3829 218.921 21.1963L218.921 21.1962L218.92 21.196C218.154 20.9318 217.387 20.6675 216.631 20.3761C216.128 20.1801 215.628 19.8964 215.221 19.5454C214.083 18.5684 214.276 16.9216 215.572 16.1815C216.096 15.8832 216.675 15.7574 217.266 15.813C218.822 15.9592 220.118 16.6262 221.133 17.8225C221.19 17.8887 221.247 17.9538 221.311 18.0271L221.434 18.1677C222.089 17.57 222.739 16.9774 223.389 16.3849L223.421 16.3553L223.467 16.3137L223.479 16.3028C224.093 15.7424 224.708 15.1818 225.327 14.6166C225.277 14.5412 225.231 14.4699 225.187 14.4016C225.107 14.2793 225.035 14.1668 224.956 14.0579C222.914 11.2001 218.722 9.66735 215.885 10.112C213.32 10.5156 211.26 11.671 209.842 13.8649C207.955 16.7783 208.037 21.7012 212.305 24.0559C213.227 24.5651 214.213 24.9701 215.191 25.3717L215.191 25.3719L215.206 25.378C215.715 25.5864 216.231 25.7754 216.748 25.9643C217.347 26.1839 217.947 26.4034 218.535 26.6534C219.067 26.8786 219.571 27.2062 220.027 27.5631C220.6 28.0106 220.793 28.6542 220.708 29.3767C220.568 30.5876 219.898 31.3716 218.737 31.6933C216.961 32.1847 215.358 31.822 213.969 30.6081C213.191 29.9295 212.656 29.0724 212.217 28.151C212.141 27.9904 212.064 27.8298 211.977 27.6508L211.904 27.4987C211.318 27.8192 210.737 28.1378 210.155 28.4563C208.991 29.0943 207.826 29.7323 206.63 30.3858C206.692 30.5183 206.749 30.6466 206.805 30.7712C206.918 31.0238 207.024 31.2614 207.148 31.4886C209.637 36.0693 214.712 38.4181 219.892 37.1925C223.967 36.2272 226.562 33.0184 226.682 28.9086C226.743 26.8172 225.985 25.0972 224.339 23.7809V23.778ZM163.397 10.7585V14.8594V14.8624C166.158 10.9691 169.762 9.56795 174.439 10.8579C174.168 12.2648 173.898 13.6485 173.63 15.0276L173.624 15.061L173.623 15.0665C173.501 15.693 173.379 16.3186 173.258 16.945C173.083 16.8738 172.916 16.7981 172.754 16.7241C172.408 16.5672 172.079 16.4181 171.734 16.3366C169.739 15.8686 167.963 16.3454 166.454 17.726C165.348 18.7381 164.707 20.0398 164.257 21.4468C163.649 23.3422 163.432 25.2991 163.418 27.2794C163.401 29.5396 163.404 31.7983 163.406 34.0576V34.0579V34.0582C163.408 34.9274 163.409 35.7966 163.409 36.6661V37.2949C162.06 37.4009 160.717 37.4231 159.364 37.4454H159.364C158.514 37.4594 157.66 37.4735 156.798 37.5085V10.7965C157.17 10.6736 162.625 10.6385 163.397 10.7585ZM239.496 33.2495L239.499 33.2553V32.4948C239.499 32.41 239.499 32.3252 239.502 32.2403C239.514 31.784 239.4 31.3686 239.163 30.9738C238.426 29.7481 237.343 29.0783 235.928 28.8911C233.415 28.5635 231.321 30.184 230.967 32.4948C230.683 34.361 231.458 36.1629 233.011 37.0667C234.603 37.994 236.773 37.8536 238.171 36.7011C239.028 35.9932 239.61 35.1303 239.499 33.9427C239.485 33.7867 239.489 33.628 239.493 33.4694V33.469C239.495 33.3957 239.496 33.3225 239.496 33.2495ZM239.499 33.2553C239.499 33.1705 239.499 33.0858 239.499 33.0013C239.499 33.0858 239.499 33.1704 239.499 33.2553Z" fill="#2D2D2D"/>
</svg>
