<svg width="61" height="38" viewBox="0 0 61 38" fill="none" xmlns="http://www.w3.org/2000/svg">
<path d="M24.7015 16.9886C24.7015 16.9886 30.3796 16.5671 30.3796 9.90862C30.3796 3.24968 25.7342 0 19.8497 0H0.486328V37.2111H19.8497C19.8497 37.2111 31.6704 37.5845 31.6704 26.2281C31.6704 26.2282 32.1858 16.9886 24.7015 16.9886ZM18.456 6.61385H19.8497C19.8497 6.61385 22.4818 6.61385 22.4818 10.4855C22.4818 14.3567 20.9339 14.9179 19.1781 14.9179H9.0181V6.61385H18.456ZM19.3026 30.5975H9.0181V20.6533H19.8497C19.8497 20.6533 23.7727 20.6018 23.7727 25.7636C23.7727 30.116 20.8426 30.5646 19.3026 30.5975ZM47.4353 9.4676C33.1251 9.4676 33.1378 23.7652 33.1378 23.7652C33.1378 23.7652 32.1559 37.9894 47.4353 37.9894C47.4353 37.9894 60.168 38.7169 60.168 28.0944H53.6197C53.6197 28.0944 53.8381 32.0947 47.6537 32.0947C47.6537 32.0947 41.1044 32.5336 41.1044 25.6208H60.3864C60.3864 25.6207 62.4961 9.4676 47.4353 9.4676ZM41.0325 20.6533C41.0325 20.6533 41.8321 14.9178 47.5808 14.9178C53.3283 14.9178 53.2563 20.6533 53.2563 20.6533H41.0325ZM54.7817 6.77448H39.4293V2.19221H54.7817V6.77448Z" fill="#2D2D2D"/>
</svg>
