<svg width="156" height="38" viewBox="0 0 156 38" fill="none" xmlns="http://www.w3.org/2000/svg">
<path d="M155.608 29.9981C149.117 41.0061 138.834 37.8121 135.743 35.3103C134.429 36.2035 132.124 38.1582 129.051 37.9291C122.505 37.4614 120.167 28.1089 120.167 28.1089C119.197 28.4876 118.175 28.7162 117.136 28.7869C117.136 31.5319 114.751 38.0834 108.354 37.9992C101.176 37.9057 99.7125 27.2063 99.7125 27.2063C99.7125 27.2063 98.997 28.1977 96.2801 29.1844C96.4157 27.0754 96.3175 37.6765 87.7131 37.8309C80.9091 37.9524 79.0713 27.038 79.0713 27.038C78.0979 27.9111 76.893 28.4843 75.6015 28.6887C75.7465 26.547 75.5127 37.8636 66.9036 37.8262C61.0863 37.8028 59.0989 31.1017 59.2532 30.1711C59.4496 28.988 57.2892 37.9899 51.6355 37.8496C49.2974 37.7794 47.5672 36.0913 46.4916 33.842C45.0326 35.5114 42.9096 37.8496 40.534 37.8496C36.2646 37.8496 34.3847 34.2769 34.7027 24.0826C34.7308 22.8714 34.6419 22.3991 33.4401 22.2121C32.72 22.0905 31.9811 21.866 31.1955 21.7444C30.943 22.5815 28.8199 37.5737 21.5109 37.8589C19.0605 37.9524 17.7184 35.8294 16.6148 34.2535C14.9267 36.4888 12.6961 37.9291 9.52559 37.9291C4.14786 37.9291 0.486328 33.5801 0.486328 28.2211C0.486328 22.8621 4.14786 18.5131 9.52559 18.5131C10.2389 18.5116 10.9462 18.6433 11.6112 18.9013C9.82487 2.63713 14.0429 0.0979022 17.7325 0.0979022C21.2771 0.0979022 27.3282 8.31881 18.8127 29.1797C20.6832 35.3992 24.7796 35.0485 26.739 22.2448C27.1365 19.6401 26.0703 16.1282 27.7304 15.6372C30.7606 14.7394 31.0833 17.4282 32.5049 17.8771C34.0059 18.3448 34.8851 18.3027 36.3254 18.6066C38.7898 19.0743 39.7531 20.4117 39.4538 23.3624C39.0937 27.1035 38.4624 32.5279 40.3891 33.1826C41.792 33.6503 44.3078 30.7884 44.7521 29.2125C45.1057 28.156 45.2995 27.0527 45.3272 25.9391C45.3053 23.8773 45.4917 21.8187 45.8837 19.7944C46.0661 19.0743 46.2672 18.5926 47.0855 18.5599C47.7589 18.5599 48.9888 18.3401 49.5265 18.761C50.2467 19.3034 50.1578 19.8552 50.0737 21.3002C49.2366 41.9366 55.6852 31.6348 57.6165 23.3858C56.9291 14.0613 57.4014 0.256897 63.2281 0.00437792C66.2677 -0.117206 67.6097 2.31914 67.7594 4.13821C68.1756 9.28213 65.8374 17.7743 62.7558 23.4934C60.9975 35.1841 70.4529 37.4708 71.9634 28.1696C69.4896 26.9912 66.8195 22.2308 68.9892 19.9113C70.2098 18.6113 75.2929 20.4818 75.3771 24.5596C77.8695 23.8908 78.1828 22.4833 78.239 22.7171C77.5515 13.3926 78.1875 0.270926 84.0329 0.0184062C87.0724 -0.103177 88.4146 2.33317 88.5642 4.15224C88.9804 9.29616 86.6422 17.7883 83.5606 23.5074C81.8023 35.1981 91.2577 37.4848 92.7682 28.1837C90.9351 27.8283 87.0678 22.7639 89.2984 19.9254C90.4908 18.4056 95.5552 21.5621 96.1211 24.7092C98.5153 24.0311 98.8427 22.6703 98.8754 22.8995C98.188 13.575 98.824 0.453301 104.669 0.200781C107.709 0.0791977 109.051 2.51554 109.201 4.33462C109.617 9.47853 107.279 17.9707 104.197 23.6898C102.439 35.3805 111.894 37.6672 113.405 28.3661C110.889 27.9452 107.325 22.6002 110.187 19.8646C111.338 18.7703 115.733 21.6088 116.762 24.8448C117.629 24.8033 118.481 24.6003 119.273 24.2463C116.991 13.2991 118.689 0.158698 124.978 0.0511436C128.378 -0.00964808 131.698 1.88892 130.239 12.303C128.836 22.2401 123.842 26.4114 123.856 26.4768C124.146 27.6693 126.713 37.6298 133.181 32.3736C132.803 31.5857 132.515 30.7574 132.325 29.9045C131.254 24.4426 133.358 18.27 139.077 17.2786C142.351 16.7081 145.442 18.3027 145.933 21.8987C146.737 27.7862 141.42 32.051 139.386 32.9769C138.479 32.4625 147.593 38.3078 153.003 26.5937C153.317 25.925 153.695 25.9811 154.187 26.3272C154.551 26.5517 156.525 28.4175 155.608 29.9981ZM13.449 26.7761C13.1731 25.9531 12.6073 24.1387 12.4109 23.3531C11.3119 22.4178 10.5403 22.2401 9.13746 22.2401C5.99967 22.2401 4.15254 25.1394 4.15254 28.2678C4.15254 31.3963 6.16334 34.2956 9.29645 34.2956C12.0134 34.2956 14.085 32.4251 14.7163 29.8297C14.2299 28.829 13.7904 27.8937 13.4256 26.7761H13.449ZM17.6577 4.40477C15.4551 4.40477 14.7069 9.66558 14.8519 14.1501C14.9897 17.2319 15.6001 20.2742 16.6616 23.1707C16.8066 23.3671 16.7785 23.2408 16.9094 23.4466C20.7253 15.0573 19.14 4.40008 17.6436 4.40008L17.6577 4.40477ZM63.5601 4.56843C60.7122 4.24109 60.7309 16.1095 61.0816 18.7703C62.5593 16.4041 65.1313 5.20908 63.5601 4.56843ZM84.3649 4.56843C81.517 4.24109 81.5357 16.1095 81.8865 18.7703C83.3548 16.4041 85.9268 5.20441 84.3555 4.56843H84.3649ZM105.006 4.7321C102.158 4.40476 102.177 16.2732 102.528 18.9387C104.005 16.5725 106.577 5.37743 105.006 4.7321ZM125.315 3.87167C120.877 4.76484 121.911 19.5653 122.584 22.1606C127.812 14.9778 127.92 3.60512 125.315 3.87167ZM141.953 22.3664C141.807 21.9327 141.514 21.5635 141.125 21.322C140.736 21.0806 140.275 20.982 139.821 21.043C137.59 21.347 135.43 24.1247 136.267 28.3473C136.399 28.9666 136.616 29.5646 136.912 30.1243C141.888 26.7808 142.309 24.1527 141.939 22.3664H141.953ZM47.96 15.3005C47.1602 15.2989 46.3896 14.9998 45.7981 14.4615C45.2065 13.9232 44.8364 13.1842 44.7595 12.3881C44.6827 11.592 44.9047 10.7958 45.3824 10.1543C45.86 9.5128 46.5592 9.0719 47.3439 8.91734C48.1286 8.76277 48.9428 8.90558 49.628 9.31801C50.3133 9.73044 50.8207 10.383 51.0515 11.1488C51.2823 11.9145 51.22 12.7388 50.8768 13.4612C50.5336 14.1836 49.934 14.7525 49.1945 15.0573C48.803 15.2187 48.3835 15.3014 47.96 15.3005Z" fill="#2D2D2D"/>
</svg>
