<svg width="117" height="39" viewBox="0 0 117 39" fill="none" xmlns="http://www.w3.org/2000/svg">
<path fill-rule="evenodd" clip-rule="evenodd" d="M15.5229 13.573V17.6238L25.2044 17.6195C24.9074 19.8537 24.154 21.4895 23.0089 22.6345C21.597 24.0465 19.3929 25.6005 15.5229 25.6005C9.55651 25.6005 4.89012 20.7921 4.89012 14.8257C4.89012 8.85924 9.55651 4.0508 15.5229 4.0508C18.7429 4.0508 21.0933 5.31641 22.8281 6.94361L25.6865 4.08524C23.2672 1.77357 20.0473 0 15.5272 0C7.35676 0 0.486328 6.65519 0.486328 14.8257C0.486328 22.9961 7.35676 29.6513 15.5272 29.6513C19.9353 29.6513 23.2629 28.2049 25.8673 25.4929C28.5449 22.8153 29.3757 19.0573 29.3757 16.0181C29.3757 15.1141 29.3068 14.279 29.1734 13.573H15.5229ZM97.1887 29.0702V1.08911H93.0991V29.0702H97.1887ZM40.5811 29.6556C45.8587 29.6556 50.1592 25.6048 50.1592 20.1076C50.1592 14.5716 45.8587 10.5596 40.5811 10.5596C35.3034 10.5596 31.0029 14.5716 31.0029 20.1076C31.0029 25.6048 35.3034 29.6556 40.5811 29.6556ZM40.5811 14.322C43.4739 14.322 45.9664 16.6724 45.9664 20.1076C45.9664 23.5041 43.4739 25.8932 40.5811 25.8932C37.6883 25.8932 35.1958 23.5084 35.1958 20.1076C35.1958 16.6724 37.6883 14.322 40.5811 14.322ZM61.2442 29.6556C66.5218 29.6556 70.8223 25.6048 70.8223 20.1076C70.8223 14.5716 66.5218 10.5596 61.2442 10.5596C55.9665 10.5596 51.666 14.5759 51.666 20.1076C51.666 25.6048 55.9665 29.6556 61.2442 29.6556ZM61.2442 14.322C64.137 14.322 66.6294 16.6724 66.6294 20.1076C66.6294 23.5041 64.137 25.8932 61.2442 25.8932C58.3513 25.8932 55.8589 23.5084 55.8589 20.1076C55.8589 16.6724 58.3513 14.322 61.2442 14.322ZM90.6243 11.1407V28.2781C90.6243 35.3293 86.4658 38.2092 81.5498 38.2092C76.9221 38.2092 74.1369 35.114 73.0866 32.5828L76.737 31.0632C77.387 32.6173 78.9798 34.4511 81.5455 34.4511C84.6923 34.4511 86.6423 32.5097 86.6423 28.8549V27.4817H86.496C85.5575 28.6397 83.7495 29.6513 81.468 29.6513C76.694 29.6513 72.3203 25.4929 72.3203 20.142C72.3203 14.7524 76.694 10.5596 81.468 10.5596C83.7452 10.5596 85.5532 11.5712 86.496 12.6947H86.6423V11.1407H90.6243ZM86.9394 20.142C86.9394 16.78 84.6966 14.3219 81.8425 14.3219C78.9497 14.3219 76.5261 16.78 76.5261 20.142C76.5261 23.4696 78.9497 25.8932 81.8425 25.8932C84.6966 25.8932 86.9394 23.4696 86.9394 20.142ZM113.125 23.25L116.38 25.4196C115.329 26.9736 112.798 29.6512 108.425 29.6512C103.001 29.6512 98.9497 25.4583 98.9497 20.1032C98.9497 14.4252 103.035 10.5552 107.955 10.5552C112.91 10.5552 115.334 14.4984 116.126 16.6292L116.561 17.714L103.797 23.0003C104.774 24.9159 106.294 25.8931 108.425 25.8931C110.56 25.8931 112.041 24.8427 113.125 23.25ZM103.108 19.8148L111.64 16.2719C111.171 15.0795 109.759 14.2487 108.097 14.2487C105.966 14.2487 103.001 16.1299 103.108 19.8148Z" fill="#2D2D2D"/>
</svg>
